<svg viewBox="0 0 357 308.65" xmlns="http://www.w3.org/2000/svg" xmlns:xlink="http://www.w3.org/1999/xlink"><clipPath id="a" transform="translate(-9 -33.18)"><path d="m9 33h357v309h-357z"/></clipPath><g clip-path="url(#a)" fill-rule="evenodd"><path d="m178.5 100.04h-57.86l-120.64 208.61h173.57l33.86-58.55-24.01-41.49-4.92-8.53-4.93 8.53-28.93 50.01h-57.85z" fill="#145da0"/><path d="m357 308.65-89.25-154.33-89.25-154.32-28.93 50.02 13.31 23.02 15.62 27 15.87 27.44 75.84 131.14 15.61 27 13.32 23.03z" fill="#d9d9d9"/><g fill="#2493d4"><path d="m178.5 100.04-44.93 23.69-93.62 161.89 46.84-27z"/><path d="m39.95 285.62-39.95 23.03h171.81l-12.51-23.03z"/><path d="m144.64 258.62 14.66 27 15.04-27 5.93-10.65-1.77-47.89z"/></g><path d="m194.37 127.48 75.84 131.14 15.61 27 13.32 23.03h57.86l-39.94-23.03-138.56-239.58-28.93 3.98 13.31 23.02 15.62 27z" fill="#68696e"/><path d="m178.5 46.04v-46.04l-28.93 50.02z" fill="#a6a6a6"/></g></svg>