<svg id="Layer_1" data-name="Layer 1" xmlns="http://www.w3.org/2000/svg" xmlns:xlink="http://www.w3.org/1999/xlink" viewBox="0 0 357 308.65"><defs><style>.cls-1{fill:none;}.cls-2{clip-path:url(#clip-path);}.cls-3{fill:#145da0;}.cls-3,.cls-4,.cls-5,.cls-6,.cls-7{fill-rule:evenodd;}.cls-4{fill:#d9d9d9;}.cls-5{fill:#2493d4;}.cls-6{fill:#68696e;}.cls-7{fill:#a6a6a6;}</style><clipPath id="clip-path" transform="translate(-9 -33.18)"><rect class="cls-1"   style="fill:none;" x="9" y="33" width="357" height="309"/></clipPath></defs><g class="cls-2"><polygon class="cls-3" style="fill:#145da0;" points="178.5 100.04 120.64 100.04 0 308.65 173.57 308.65 207.43 250.1 183.42 208.61 178.5 200.08 173.57 208.61 144.64 258.62 86.79 258.62 178.5 100.04"/><polygon class="cls-4" style="fill:#d9d9d9;"  points="357 308.65 267.75 154.32 178.5 0 149.57 50.02 162.88 73.04 178.5 100.04 194.37 127.48 270.21 258.62 285.82 285.62 299.14 308.65 357 308.65"/><polygon class="cls-5" points="178.5 100.04 133.57 123.73 39.95 285.62 86.79 258.62 178.5 100.04"/><polygon class="cls-5" style="fill:#2493d4;" points="39.95 285.62 0 308.65 171.81 308.65 159.3 285.62 39.95 285.62"/><polygon class="cls-5" points="144.64 258.62 159.3 285.62 174.34 258.62 180.27 247.97 178.5 200.08 144.64 258.62"/><polygon class="cls-6" style="fill:#68696e;" points="194.37 127.48 270.21 258.62 285.82 285.62 299.14 308.65 357 308.65 317.06 285.62 178.5 46.04 149.57 50.02 162.88 73.04 178.5 100.04 194.37 127.48"/><polygon class="cls-7" points="178.5 46.04 178.5 0 149.57 50.02 178.5 46.04"/></g></svg>