<?xml version="1.0" encoding="utf-8"?>
<!-- Generator: Adobe Illustrator 26.3.1, SVG Export Plug-In . SVG Version: 6.00 Build 0)  -->
<svg version="1.1" id="Layer_1" xmlns="http://www.w3.org/2000/svg" xmlns:xlink="http://www.w3.org/1999/xlink" x="0px" y="0px"
	 viewBox="0 0 64 64" style="enable-background:new 0 0 64 64;" xml:space="preserve">
<style type="text/css">
	.st0{fill:#1A4371;}
</style>
<path id="touchID_00000150087256925344384750000014750211424421362563_" class="st0" d="M5.25,25.36c1.03,0.37,2.16-0.16,2.53-1.19
	c0.01-0.02,0.01-0.03,0.02-0.05C11.27,13.93,20.86,7.1,31.63,7.14c3.76-0.1,7.49,0.73,10.86,2.42c1.21,0.58,2.34,0.58,2.82-0.5
	c0.41-0.87,0.04-1.91-0.84-2.32c-0.03-0.01-0.06-0.03-0.1-0.04c-3.85-2.28-8.28-3.4-12.75-3.21C19.37,3.19,8.32,10.83,4.27,22.41
	c-0.56,1.04-0.17,2.34,0.87,2.89C5.18,25.32,5.22,25.34,5.25,25.36z M9.11,48.53c0.61,0.83,1.77,1.01,2.6,0.4
	c0.04-0.03,0.09-0.07,0.13-0.1c1.95-1.82,3.02-4.41,2.92-7.08c0-3.63-1.56-5.49-1.56-9.77c0.06-10.12,8.24-18.31,18.36-18.36
	c11.96,0,19.8,9.85,19.8,24.56c0.14,4.1-0.49,8.2-1.86,12.07c-0.43,0.91-0.08,1.99,0.81,2.47c0.93,0.44,2.05,0.05,2.5-0.89
	c0.02-0.04,0.04-0.08,0.05-0.13c1.53-4.35,2.26-8.94,2.17-13.54C55.01,21.33,45.69,10,31.56,10C19.44,10.06,9.63,19.87,9.57,31.99
	c0,4.26,1.61,7.13,1.64,9.72c0.03,1.6-0.6,3.15-1.74,4.28C8.72,46.63,8.57,47.72,9.11,48.53z M59.29,35.18
	c0.96-0.01,1.72-0.8,1.71-1.75c0-0.08-0.01-0.16-0.02-0.24c-1.01-10.63-4.53-17.06-10.51-22.6c-0.73-0.69-1.87-0.66-2.56,0.07
	c-0.02,0.02-0.04,0.04-0.06,0.06c-0.65,0.75-0.57,1.89,0.18,2.54c0.03,0.03,0.06,0.05,0.09,0.08c5.54,5.23,8.88,12.37,9.35,19.98
	C57.48,34.33,58.28,35.15,59.29,35.18z M21.24,38.51c-0.92-2.03-1.43-4.22-1.5-6.45c-0.04-6.54,5.22-11.87,11.76-11.92
	c0.04,0,0.08,0,0.13,0c1.87-0.11,3.73,0.31,5.37,1.21c0.79,0.46,1.8,0.19,2.25-0.6c0,0,0-0.01,0.01-0.01
	c0.52-0.9,0.2-2.05-0.69-2.56c-0.04-0.02-0.07-0.04-0.11-0.06c-2.09-1.13-4.45-1.69-6.83-1.64c-8.59-0.01-15.56,6.94-15.57,15.52
	c0,0.02,0,0.03,0,0.05c0.06,2.69,0.6,5.34,1.61,7.84c0.35,1,1.44,1.52,2.43,1.17c0.05-0.02,0.11-0.04,0.16-0.06
	C21.22,40.58,21.66,39.47,21.24,38.51z M41.43,25.13c2.51,4.35,3.72,9.34,3.48,14.36c0,6.47-1.73,12.64-4.53,16.08
	c-0.62,0.74-0.59,1.83,0.07,2.54c0.75,0.7,1.92,0.67,2.62-0.08c0.04-0.04,0.07-0.08,0.11-0.12c3.62-5.48,5.48-11.94,5.34-18.51
	c0.31-5.67-1.06-11.3-3.93-16.2c-0.49-0.96-1.66-1.34-2.62-0.86c-0.9,0.52-1.21,1.67-0.68,2.57C41.32,24.98,41.37,25.06,41.43,25.13
	z M21.17,56.87c4.45-3.78,6.93-9.38,6.73-15.22c-0.05-4.66-1.66-7.48-1.66-9.9c-0.1-2.73,2.02-5.03,4.75-5.13
	c0.21-0.01,0.42,0,0.62,0.02c4.56,0,6.47,4.99,6.67,12.62c0.23,7.68-2.46,14.64-6.42,18.03c-0.75,0.6-0.93,1.65-0.43,2.47
	c0.57,0.82,1.69,1.02,2.51,0.45c0.07-0.05,0.14-0.11,0.21-0.17c4.3-3.9,7.56-12.37,7.52-21.03c-0.03-9.75-3.1-16-10.1-16
	c-4.63-0.31-8.63,3.2-8.94,7.83c-0.01,0.2-0.02,0.41-0.02,0.61c0,3.02,1.56,6.65,1.61,10.2c0.2,4.72-1.76,9.26-5.31,12.37
	c-0.81,0.59-1.01,1.71-0.45,2.55c0.55,0.82,1.66,1.03,2.47,0.48C21.03,56.99,21.1,56.93,21.17,56.87z M6.49,41.13
	c0.94-0.35,1.45-1.36,1.16-2.32c-0.72-2.78-1.03-5.65-0.93-8.51c0.06-0.95-0.62-1.79-1.56-1.92c-0.97-0.17-1.89,0.48-2.06,1.45
	c-0.02,0.1-0.03,0.2-0.03,0.29c-0.21,3.27,0.15,6.55,1.07,9.7c0.23,0.98,1.2,1.59,2.18,1.36C6.37,41.16,6.43,41.15,6.49,41.13z
	 M34.48,44.35c0.65-3.99,0.35-8.09-0.88-11.94c-0.2-0.98-1.16-1.61-2.13-1.41c-0.06,0.01-0.12,0.03-0.18,0.05
	c-0.95,0.28-1.49,1.28-1.21,2.22c0.01,0.02,0.01,0.05,0.02,0.07c1.09,3.37,1.36,6.95,0.81,10.45c-0.24,0.9,0.3,1.83,1.2,2.08
	c0.06,0.02,0.12,0.03,0.19,0.04c1,0.2,1.97-0.45,2.17-1.45C34.46,44.42,34.47,44.39,34.48,44.35L34.48,44.35z M15.68,53.44
	c2.52-1.65,4.4-4.1,5.35-6.95c0.32-0.95-0.19-1.98-1.14-2.32c-0.94-0.29-1.93,0.23-2.22,1.17c-0.01,0.02-0.01,0.04-0.02,0.06
	c-0.63,1.97-1.91,3.68-3.63,4.83c-0.87,0.5-1.26,1.55-0.91,2.49c0.42,0.88,1.48,1.25,2.35,0.83C15.54,53.53,15.61,53.49,15.68,53.44
	L15.68,53.44z M27.32,58.96c2.47-2.02,4.32-4.69,5.36-7.71c0.42-0.87,0.05-1.92-0.83-2.34c-0.04-0.02-0.09-0.04-0.13-0.06
	c-0.94-0.36-1.99,0.1-2.35,1.04c-0.02,0.04-0.03,0.08-0.04,0.12c-0.86,2.33-2.32,4.4-4.23,6c-0.81,0.6-1.02,1.73-0.48,2.58
	c0.63,0.84,1.82,1.02,2.66,0.39C27.3,58.98,27.31,58.97,27.32,58.96L27.32,58.96z"/>
</svg>
