<?xml version="1.0" encoding="utf-8"?>
<!-- Generator: Adobe Illustrator 26.3.1, SVG Export Plug-In . SVG Version: 6.00 Build 0)  -->
<svg version="1.1" id="Layer_1" xmlns="http://www.w3.org/2000/svg" xmlns:xlink="http://www.w3.org/1999/xlink" x="0px" y="0px"
	 viewBox="0 0 64 64" style="enable-background:new 0 0 64 64;" xml:space="preserve">
<style type="text/css">
	.st0{fill:#667083;}
</style>
<path class="st0" d="M38.78,35.95c0,0-0.01-0.01-0.01-0.01c0,0-0.01-0.01-0.01-0.01L28.07,25.24c0,0,0-0.01-0.01-0.01
	s-0.01,0-0.01-0.01l-9.89-9.89c0,0,0,0,0,0L6.34,3.52c-0.78-0.78-2.05-0.78-2.83,0s-0.78,2.05,0,2.83l10.1,10.1
	C8.59,20.2,4.79,25.41,2.8,31.37c-0.14,0.41-0.14,0.85,0,1.27C7,45.22,18.74,53.67,32.02,53.67c5.25,0,10.38-1.35,14.94-3.89
	l10.7,10.7c0.39,0.39,0.9,0.59,1.41,0.59s1.02-0.2,1.41-0.59c0.78-0.78,0.78-2.05,0-2.83L38.78,35.95z M26.92,29.75l7.33,7.33
	c-0.7,0.31-1.46,0.49-2.25,0.49c-3.07,0-5.57-2.5-5.57-5.57C26.43,31.21,26.61,30.45,26.92,29.75z M32.02,49.67
	c-11.33,0-21.37-7.08-25.2-17.67c1.84-5.1,5.24-9.53,9.67-12.69l7.49,7.49c-1,1.53-1.54,3.32-1.54,5.2c0,5.28,4.29,9.57,9.57,9.57
	c1.87,0,3.66-0.54,5.2-1.54L44,46.82C40.29,48.68,36.2,49.67,32.02,49.67z M61.2,32.63c-1.29,3.87-3.31,7.39-5.99,10.48
	c-0.4,0.45-0.95,0.68-1.51,0.68c-0.47,0-0.93-0.16-1.32-0.49c-0.83-0.73-0.92-1.99-0.19-2.82c2.19-2.52,3.87-5.36,4.99-8.48
	c-3.83-10.6-13.85-17.68-25.16-17.68c-2.19,0-4.36,0.26-6.47,0.79c-1.07,0.27-2.16-0.39-2.42-1.46c-0.27-1.07,0.39-2.16,1.46-2.42
	c2.42-0.6,4.92-0.9,7.43-0.9c13.26,0,24.98,8.46,29.18,21.04C61.33,31.78,61.33,32.22,61.2,32.63z"/>
</svg>
