<?xml version="1.0" encoding="utf-8"?>
<!-- Generator: Adobe Illustrator 26.3.1, SVG Export Plug-In . SVG Version: 6.00 Build 0)  -->
<svg version="1.1" id="Layer_1" xmlns="http://www.w3.org/2000/svg" xmlns:xlink="http://www.w3.org/1999/xlink" x="0px" y="0px"
	 viewBox="0 0 64 64" style="enable-background:new 0 0 64 64;" xml:space="preserve">
<style type="text/css">
	.st0{fill:#667083;}
</style>
<path class="st0" d="M59.68,16.57c0-0.01,0-0.02,0-0.03c-0.03-3.91-3.22-7.08-7.13-7.08H11.46c-3.91,0-7.1,3.17-7.13,7.07
	c0,0.01,0,0.03,0,0.04c0,0.01,0,0.01,0,0.02v30.81c0,3.93,3.2,7.14,7.14,7.14h41.09c3.93,0,7.14-3.2,7.14-7.14V16.59
	C59.68,16.58,59.68,16.57,59.68,16.57z M11.46,13.46h41.09c1.4,0,2.58,0.93,2.98,2.21L32,32.13L8.48,15.66
	C8.88,14.39,10.05,13.46,11.46,13.46z M52.54,50.54H11.46c-1.73,0-3.14-1.41-3.14-3.14V20.43l22.53,15.77
	c0.35,0.24,0.75,0.36,1.15,0.36s0.8-0.12,1.15-0.36l22.53-15.77v26.97C55.68,49.13,54.27,50.54,52.54,50.54z"/>
</svg>
