<?xml version="1.0" encoding="utf-8"?>
<!-- Generator: Adobe Illustrator 26.3.1, SVG Export Plug-In . SVG Version: 6.00 Build 0)  -->
<svg version="1.1" id="Layer_1" xmlns="http://www.w3.org/2000/svg" xmlns:xlink="http://www.w3.org/1999/xlink" x="0px" y="0px"
	 viewBox="0 0 64 64" style="enable-background:new 0 0 64 64;" xml:space="preserve">
<style type="text/css">
	.st0{fill:#667083;}
</style>
<path class="st0" d="M32,22.43c-2.55,0-4.96,0.99-6.77,2.8c-0.02,0.02-0.03,0.03-0.04,0.05c-1.78,1.8-2.76,4.18-2.76,6.72
	c0,5.28,4.29,9.57,9.57,9.57c2.55,0,4.96-0.99,6.77-2.8c0.02-0.02,0.03-0.03,0.04-0.05c1.78-1.8,2.76-4.18,2.76-6.72
	C41.57,26.72,37.27,22.43,32,22.43z M26.43,32c0-1.49,0.58-2.89,1.63-3.93c0,0,0,0,0-0.01c1.05-1.05,2.45-1.63,3.93-1.63
	c3.07,0,5.57,2.5,5.57,5.57c0,1.49-0.58,2.89-1.63,3.93c0,0,0,0,0,0.01c-1.05,1.05-2.45,1.63-3.93,1.63
	C28.93,37.57,26.43,35.07,26.43,32z M61.25,31.7c-0.02-0.11-0.02-0.22-0.05-0.33c0,0,0,0,0,0v0c-0.67-2.01-1.56-3.91-2.59-5.69
	c-5.42-9.37-15.45-15.35-26.59-15.35c-0.01,0-0.01,0-0.02,0c-0.01,0-0.01,0-0.02,0c-0.08,0-0.16,0.01-0.24,0.01
	c-0.58,0.01-1.16,0.02-1.74,0.06c-0.3,0.02-0.59,0.05-0.89,0.08c-0.37,0.03-0.74,0.07-1.11,0.12c-0.32,0.04-0.64,0.1-0.97,0.15
	c-0.34,0.06-0.68,0.11-1.02,0.18c-0.32,0.06-0.64,0.13-0.96,0.21c-0.16,0.04-0.31,0.06-0.47,0.1c-0.05,0.01-0.1,0.04-0.15,0.05
	c-3.09,0.78-6.05,2.03-8.78,3.74c-0.03,0.02-0.05,0.04-0.08,0.06c-2.46,1.56-4.66,3.46-6.57,5.61c-0.07,0.06-0.14,0.12-0.21,0.19
	c-1.5,1.72-2.78,3.58-3.85,5.56c-0.02,0.04-0.04,0.08-0.06,0.11c-0.4,0.74-0.77,1.5-1.1,2.27c-0.02,0.05-0.04,0.1-0.06,0.15
	c-0.33,0.78-0.64,1.57-0.91,2.38C2.74,31.57,2.7,31.79,2.7,32c0,0.1,0.03,0.2,0.05,0.3c0.02,0.11,0.02,0.22,0.05,0.33c0,0,0,0,0,0v0
	c0.68,2.05,1.59,3.98,2.64,5.79c5.43,9.31,15.44,15.25,26.53,15.25c0.01,0,0.01,0,0.02,0c0.01,0,0.01,0,0.02,0
	c0.08,0,0.16-0.01,0.24-0.01c0.58-0.01,1.16-0.02,1.74-0.06c0.3-0.02,0.59-0.05,0.89-0.08c0.37-0.03,0.74-0.07,1.11-0.12
	c0.32-0.04,0.64-0.1,0.97-0.15c0.34-0.06,0.68-0.11,1.02-0.18c0.32-0.06,0.64-0.13,0.96-0.21c0.16-0.04,0.31-0.06,0.47-0.1
	c0.05-0.01,0.1-0.04,0.15-0.05c3.09-0.78,6.05-2.03,8.78-3.74c0.03-0.02,0.05-0.04,0.08-0.06c2.46-1.56,4.66-3.46,6.57-5.61
	c0.07-0.06,0.14-0.12,0.21-0.19c1.5-1.72,2.78-3.58,3.85-5.56c0.02-0.04,0.04-0.07,0.06-0.11c0.4-0.74,0.77-1.5,1.1-2.27
	c0.02-0.05,0.04-0.1,0.06-0.15c0.33-0.78,0.64-1.57,0.91-2.38c0.07-0.21,0.1-0.42,0.1-0.63C61.3,31.9,61.26,31.8,61.25,31.7z
	 M46.21,45.58c-0.01,0.01-0.02,0.02-0.04,0.03c-2.51,1.57-5.26,2.7-8.12,3.36c-0.28,0.07-0.57,0.13-0.85,0.18
	c-0.29,0.06-0.59,0.11-0.88,0.16c-0.28,0.05-0.56,0.09-0.84,0.13c-0.32,0.04-0.64,0.07-0.96,0.1c-0.26,0.02-0.52,0.05-0.77,0.07
	c-0.49,0.03-0.99,0.05-1.49,0.05c-0.08,0-0.17,0.01-0.25,0.01c-9.75-0.01-18.53-5.26-23.23-13.48c-0.76-1.33-1.42-2.73-1.95-4.2
	c0.02-0.06,0.05-0.12,0.07-0.18c0.25-0.67,0.52-1.32,0.82-1.97c0.15-0.33,0.33-0.65,0.5-0.97c0.19-0.36,0.37-0.73,0.57-1.08
	c0.2-0.35,0.42-0.69,0.64-1.03c0.2-0.32,0.4-0.64,0.62-0.95c0.23-0.32,0.47-0.64,0.71-0.95c0.24-0.31,0.48-0.63,0.74-0.93
	c1.79-2.14,3.91-4.02,6.31-5.53c0.01-0.01,0.02-0.02,0.04-0.03c2.51-1.57,5.26-2.7,8.12-3.36c0.28-0.07,0.57-0.13,0.85-0.18
	c0.29-0.06,0.59-0.11,0.88-0.16c0.28-0.05,0.56-0.09,0.84-0.13c0.32-0.04,0.64-0.07,0.96-0.1c0.26-0.02,0.52-0.05,0.78-0.07
	c0.49-0.03,0.99-0.05,1.49-0.05c0.08,0,0.17-0.01,0.25-0.01c9.75,0.01,18.53,5.26,23.23,13.48c0.76,1.33,1.42,2.73,1.95,4.2
	c-0.02,0.06-0.05,0.12-0.07,0.18c-0.25,0.67-0.52,1.32-0.82,1.97c-0.15,0.33-0.33,0.65-0.5,0.97c-0.19,0.36-0.37,0.73-0.57,1.08
	c-0.2,0.35-0.42,0.69-0.64,1.02c-0.2,0.32-0.4,0.64-0.62,0.95c-0.23,0.32-0.47,0.64-0.7,0.95c-0.24,0.32-0.49,0.63-0.74,0.93
	C50.73,42.2,48.61,44.08,46.21,45.58z"/>
</svg>
