<?xml version="1.0" encoding="utf-8"?>
<!-- Generator: Adobe Illustrator 26.3.1, SVG Export Plug-In . SVG Version: 6.00 Build 0)  -->
<svg version="1.1" id="Layer_1" xmlns="http://www.w3.org/2000/svg" xmlns:xlink="http://www.w3.org/1999/xlink" x="0px" y="0px"
	 viewBox="0 0 64 64" style="enable-background:new 0 0 64 64;" xml:space="preserve">
<style type="text/css">
	.st0{fill:#667083;}
</style>
<path class="st0" d="M49.98,27.43h-3.14v-8.27c0-3.96-1.54-7.69-4.35-10.49c-2.8-2.8-6.53-4.35-10.49-4.35
	c-3.96,0-7.69,1.54-10.49,4.35c-2.8,2.8-4.35,6.53-4.35,10.49v8.27h-3.14c-3.93,0-7.14,3.2-7.14,7.14v17.98
	c0,3.93,3.2,7.14,7.14,7.14h35.95c3.93,0,7.14-3.2,7.14-7.14V34.57C57.11,30.63,53.91,27.43,49.98,27.43z M21.16,19.16
	c0-2.89,1.13-5.62,3.17-7.66S29.1,8.32,32,8.32c2.9,0,5.62,1.13,7.66,3.17c2.05,2.05,3.17,4.77,3.17,7.66v8.27H21.16V19.16z
	 M53.11,52.54c0,1.73-1.41,3.14-3.14,3.14H14.02c-1.73,0-3.14-1.41-3.14-3.14V34.57c0-1.73,1.41-3.14,3.14-3.14h35.95
	c1.73,0,3.14,1.41,3.14,3.14V52.54z"/>
</svg>
