<?xml version="1.0" encoding="utf-8"?>
<!-- Generator: Adobe Illustrator 26.3.1, SVG Export Plug-In . SVG Version: 6.00 Build 0)  -->
<svg version="1.1" id="Layer_1" xmlns="http://www.w3.org/2000/svg" xmlns:xlink="http://www.w3.org/1999/xlink" x="0px" y="0px"
	 viewBox="0 0 64 64" style="enable-background:new 0 0 64 64;" xml:space="preserve">
<style type="text/css">
	.st0{fill:#667083;}
</style>
<path class="st0" d="M44.84,59.68H19.16c-3.93,0-7.14-3.2-7.14-7.14V11.46c0-3.93,3.2-7.14,7.14-7.14h25.68
	c3.93,0,7.14,3.2,7.14,7.14v41.09C51.98,56.48,48.77,59.68,44.84,59.68z M19.16,8.32c-1.73,0-3.14,1.41-3.14,3.14v41.09
	c0,1.73,1.41,3.14,3.14,3.14h25.68c1.73,0,3.14-1.41,3.14-3.14V11.46c0-1.73-1.41-3.14-3.14-3.14H19.16z M32,46.98
	c-1.47,0-2.67,1.19-2.67,2.67s1.19,2.67,2.67,2.67c1.47,0,2.67-1.19,2.67-2.67S33.47,46.98,32,46.98z"/>
</svg>
