<?xml version="1.0" encoding="utf-8"?>
<!-- Generator: Adobe Illustrator 26.3.1, SVG Export Plug-In . SVG Version: 6.00 Build 0)  -->
<svg version="1.1" id="Layer_1" xmlns="http://www.w3.org/2000/svg" xmlns:xlink="http://www.w3.org/1999/xlink" x="0px" y="0px"
	 viewBox="0 0 64 64" style="enable-background:new 0 0 64 64;" xml:space="preserve">
<style type="text/css">
	.st0{fill:#667083;}
</style>
<path class="st0" d="M32,25.74c-6.27,0-11.38-5.1-11.38-11.38S25.73,2.99,32,2.99s11.37,5.1,11.37,11.38S38.27,25.74,32,25.74z
	 M32,6.99c-4.07,0-7.38,3.31-7.38,7.38s3.31,7.38,7.38,7.38s7.37-3.31,7.37-7.38S36.07,6.99,32,6.99z M32,61.01
	c-14.33,0-25.56-6.66-25.56-15.17S17.67,30.68,32,30.68c14.33,0,25.56,6.66,25.56,15.17S46.33,61.01,32,61.01z M32,34.68
	c-11.69,0-21.56,5.11-21.56,11.17c0,6.05,9.87,11.17,21.56,11.17c11.69,0,21.56-5.11,21.56-11.17C53.56,39.79,43.69,34.68,32,34.68z
	"/>
</svg>
